<mxfile host="app.diagrams.net" modified="2021-03-12T04:47:04.314Z" agent="5.0 (Windows NT 10.0; Win64; x64) AppleWebKit/537.36 (KHTML, like Gecko) Chrome/89.0.4389.72 Safari/537.36 Edg/89.0.774.45" etag="DFzx6aArV5D0QzWm_kHy" version="14.4.7" type="github">
  <diagram id="C5RBs43oDa-KdzZeNtuy" name="Page-1">
    <mxGraphModel dx="1422" dy="714" grid="1" gridSize="10" guides="1" tooltips="1" connect="1" arrows="1" fold="1" page="1" pageScale="1" pageWidth="827" pageHeight="1169" math="0" shadow="0">
      <root>
        <mxCell id="WIyWlLk6GJQsqaUBKTNV-0" />
        <mxCell id="WIyWlLk6GJQsqaUBKTNV-1" parent="WIyWlLk6GJQsqaUBKTNV-0" />
        <mxCell id="UK9WnE1GiEH6gqg-ueRh-2" value="" style="edgeStyle=orthogonalEdgeStyle;rounded=0;orthogonalLoop=1;jettySize=auto;html=1;curved=1;" edge="1" parent="WIyWlLk6GJQsqaUBKTNV-1" source="UK9WnE1GiEH6gqg-ueRh-0" target="UK9WnE1GiEH6gqg-ueRh-1">
          <mxGeometry relative="1" as="geometry" />
        </mxCell>
        <mxCell id="UK9WnE1GiEH6gqg-ueRh-0" value="接收MQ" style="strokeWidth=2;html=1;shape=mxgraph.flowchart.terminator;whiteSpace=wrap;" vertex="1" parent="WIyWlLk6GJQsqaUBKTNV-1">
          <mxGeometry x="330" y="30" width="100" height="60" as="geometry" />
        </mxCell>
        <mxCell id="UK9WnE1GiEH6gqg-ueRh-4" value="" style="edgeStyle=orthogonalEdgeStyle;rounded=0;orthogonalLoop=1;jettySize=auto;html=1;curved=1;" edge="1" parent="WIyWlLk6GJQsqaUBKTNV-1" source="UK9WnE1GiEH6gqg-ueRh-1" target="UK9WnE1GiEH6gqg-ueRh-3">
          <mxGeometry relative="1" as="geometry" />
        </mxCell>
        <mxCell id="UK9WnE1GiEH6gqg-ueRh-1" value="根据企业和对象计算队列key" style="whiteSpace=wrap;html=1;strokeWidth=2;" vertex="1" parent="WIyWlLk6GJQsqaUBKTNV-1">
          <mxGeometry x="320" y="130" width="120" height="60" as="geometry" />
        </mxCell>
        <mxCell id="UK9WnE1GiEH6gqg-ueRh-6" value="Y" style="edgeStyle=orthogonalEdgeStyle;rounded=0;orthogonalLoop=1;jettySize=auto;html=1;curved=1;" edge="1" parent="WIyWlLk6GJQsqaUBKTNV-1" source="UK9WnE1GiEH6gqg-ueRh-3" target="UK9WnE1GiEH6gqg-ueRh-5">
          <mxGeometry relative="1" as="geometry" />
        </mxCell>
        <mxCell id="UK9WnE1GiEH6gqg-ueRh-40" value="N" style="edgeStyle=orthogonalEdgeStyle;rounded=0;orthogonalLoop=1;jettySize=auto;html=1;exitX=1;exitY=0.5;exitDx=0;exitDy=0;exitPerimeter=0;curved=1;" edge="1" parent="WIyWlLk6GJQsqaUBKTNV-1" source="UK9WnE1GiEH6gqg-ueRh-3">
          <mxGeometry relative="1" as="geometry">
            <mxPoint x="520" y="250" as="targetPoint" />
          </mxGeometry>
        </mxCell>
        <mxCell id="UK9WnE1GiEH6gqg-ueRh-3" value="排队中" style="strokeWidth=2;html=1;shape=mxgraph.flowchart.decision;whiteSpace=wrap;fontFamily=Helvetica;fontSize=12;fontColor=#000000;align=center;strokeColor=#000000;fillColor=#ffffff;" vertex="1" parent="WIyWlLk6GJQsqaUBKTNV-1">
          <mxGeometry x="320" y="220" width="120" height="60" as="geometry" />
        </mxCell>
        <mxCell id="UK9WnE1GiEH6gqg-ueRh-10" value="" style="edgeStyle=orthogonalEdgeStyle;rounded=0;orthogonalLoop=1;jettySize=auto;html=1;curved=1;" edge="1" parent="WIyWlLk6GJQsqaUBKTNV-1" source="UK9WnE1GiEH6gqg-ueRh-5" target="UK9WnE1GiEH6gqg-ueRh-9">
          <mxGeometry relative="1" as="geometry" />
        </mxCell>
        <mxCell id="UK9WnE1GiEH6gqg-ueRh-5" value="生成消息key，尝试插入慢队列表" style="whiteSpace=wrap;html=1;strokeWidth=2;" vertex="1" parent="WIyWlLk6GJQsqaUBKTNV-1">
          <mxGeometry x="320" y="330" width="120" height="60" as="geometry" />
        </mxCell>
        <mxCell id="UK9WnE1GiEH6gqg-ueRh-13" value="Y" style="edgeStyle=orthogonalEdgeStyle;rounded=0;orthogonalLoop=1;jettySize=auto;html=1;curved=1;" edge="1" parent="WIyWlLk6GJQsqaUBKTNV-1" source="UK9WnE1GiEH6gqg-ueRh-9" target="UK9WnE1GiEH6gqg-ueRh-12">
          <mxGeometry relative="1" as="geometry" />
        </mxCell>
        <mxCell id="UK9WnE1GiEH6gqg-ueRh-35" value="N" style="edgeStyle=orthogonalEdgeStyle;rounded=0;orthogonalLoop=1;jettySize=auto;html=1;curved=1;" edge="1" parent="WIyWlLk6GJQsqaUBKTNV-1" source="UK9WnE1GiEH6gqg-ueRh-9" target="UK9WnE1GiEH6gqg-ueRh-34">
          <mxGeometry relative="1" as="geometry" />
        </mxCell>
        <mxCell id="UK9WnE1GiEH6gqg-ueRh-9" value="插入成功" style="rhombus;whiteSpace=wrap;html=1;strokeWidth=2;" vertex="1" parent="WIyWlLk6GJQsqaUBKTNV-1">
          <mxGeometry x="320" y="420" width="120" height="60" as="geometry" />
        </mxCell>
        <mxCell id="UK9WnE1GiEH6gqg-ueRh-15" value="" style="edgeStyle=orthogonalEdgeStyle;rounded=0;orthogonalLoop=1;jettySize=auto;html=1;curved=1;" edge="1" parent="WIyWlLk6GJQsqaUBKTNV-1" source="UK9WnE1GiEH6gqg-ueRh-12" target="UK9WnE1GiEH6gqg-ueRh-14">
          <mxGeometry relative="1" as="geometry" />
        </mxCell>
        <mxCell id="UK9WnE1GiEH6gqg-ueRh-12" value="获取慢队列消费线程锁" style="whiteSpace=wrap;html=1;strokeWidth=2;" vertex="1" parent="WIyWlLk6GJQsqaUBKTNV-1">
          <mxGeometry x="320" y="510" width="120" height="60" as="geometry" />
        </mxCell>
        <mxCell id="UK9WnE1GiEH6gqg-ueRh-17" value="Y" style="edgeStyle=orthogonalEdgeStyle;rounded=0;orthogonalLoop=1;jettySize=auto;html=1;curved=1;" edge="1" parent="WIyWlLk6GJQsqaUBKTNV-1" source="UK9WnE1GiEH6gqg-ueRh-14" target="UK9WnE1GiEH6gqg-ueRh-16">
          <mxGeometry relative="1" as="geometry" />
        </mxCell>
        <mxCell id="UK9WnE1GiEH6gqg-ueRh-33" style="edgeStyle=orthogonalEdgeStyle;rounded=0;orthogonalLoop=1;jettySize=auto;html=1;exitX=1;exitY=0.5;exitDx=0;exitDy=0;entryX=0.5;entryY=0;entryDx=0;entryDy=0;entryPerimeter=0;curved=1;" edge="1" parent="WIyWlLk6GJQsqaUBKTNV-1" source="UK9WnE1GiEH6gqg-ueRh-14" target="UK9WnE1GiEH6gqg-ueRh-31">
          <mxGeometry relative="1" as="geometry" />
        </mxCell>
        <mxCell id="UK9WnE1GiEH6gqg-ueRh-14" value="获取锁成功" style="rhombus;whiteSpace=wrap;html=1;strokeWidth=2;" vertex="1" parent="WIyWlLk6GJQsqaUBKTNV-1">
          <mxGeometry x="320" y="600" width="120" height="60" as="geometry" />
        </mxCell>
        <mxCell id="UK9WnE1GiEH6gqg-ueRh-19" value="" style="edgeStyle=orthogonalEdgeStyle;rounded=0;orthogonalLoop=1;jettySize=auto;html=1;curved=1;" edge="1" parent="WIyWlLk6GJQsqaUBKTNV-1" source="UK9WnE1GiEH6gqg-ueRh-16" target="UK9WnE1GiEH6gqg-ueRh-18">
          <mxGeometry relative="1" as="geometry" />
        </mxCell>
        <mxCell id="UK9WnE1GiEH6gqg-ueRh-16" value="按id排序取前第一条（待处理数据或一定时间前的延后处理数据）" style="whiteSpace=wrap;html=1;strokeWidth=2;" vertex="1" parent="WIyWlLk6GJQsqaUBKTNV-1">
          <mxGeometry x="320" y="690" width="120" height="60" as="geometry" />
        </mxCell>
        <mxCell id="UK9WnE1GiEH6gqg-ueRh-21" value="Y" style="edgeStyle=orthogonalEdgeStyle;rounded=0;orthogonalLoop=1;jettySize=auto;html=1;curved=1;" edge="1" parent="WIyWlLk6GJQsqaUBKTNV-1" source="UK9WnE1GiEH6gqg-ueRh-18" target="UK9WnE1GiEH6gqg-ueRh-20">
          <mxGeometry relative="1" as="geometry" />
        </mxCell>
        <mxCell id="UK9WnE1GiEH6gqg-ueRh-28" value="N" style="edgeStyle=orthogonalEdgeStyle;rounded=0;orthogonalLoop=1;jettySize=auto;html=1;curved=1;" edge="1" parent="WIyWlLk6GJQsqaUBKTNV-1" source="UK9WnE1GiEH6gqg-ueRh-18" target="UK9WnE1GiEH6gqg-ueRh-27">
          <mxGeometry relative="1" as="geometry" />
        </mxCell>
        <mxCell id="UK9WnE1GiEH6gqg-ueRh-18" value="有数据" style="rhombus;whiteSpace=wrap;html=1;strokeWidth=2;" vertex="1" parent="WIyWlLk6GJQsqaUBKTNV-1">
          <mxGeometry x="320" y="780" width="120" height="60" as="geometry" />
        </mxCell>
        <mxCell id="UK9WnE1GiEH6gqg-ueRh-23" value="" style="edgeStyle=orthogonalEdgeStyle;rounded=0;orthogonalLoop=1;jettySize=auto;html=1;curved=1;" edge="1" parent="WIyWlLk6GJQsqaUBKTNV-1" source="UK9WnE1GiEH6gqg-ueRh-20" target="UK9WnE1GiEH6gqg-ueRh-22">
          <mxGeometry relative="1" as="geometry" />
        </mxCell>
        <mxCell id="UK9WnE1GiEH6gqg-ueRh-20" value="修改该条数据为处理中状态" style="whiteSpace=wrap;html=1;strokeWidth=2;" vertex="1" parent="WIyWlLk6GJQsqaUBKTNV-1">
          <mxGeometry x="320" y="870" width="120" height="60" as="geometry" />
        </mxCell>
        <mxCell id="UK9WnE1GiEH6gqg-ueRh-25" value="" style="edgeStyle=orthogonalEdgeStyle;rounded=0;orthogonalLoop=1;jettySize=auto;html=1;curved=1;" edge="1" parent="WIyWlLk6GJQsqaUBKTNV-1" source="UK9WnE1GiEH6gqg-ueRh-22" target="UK9WnE1GiEH6gqg-ueRh-24">
          <mxGeometry relative="1" as="geometry" />
        </mxCell>
        <mxCell id="UK9WnE1GiEH6gqg-ueRh-39" value="" style="edgeStyle=orthogonalEdgeStyle;rounded=0;orthogonalLoop=1;jettySize=auto;html=1;curved=1;" edge="1" parent="WIyWlLk6GJQsqaUBKTNV-1" source="UK9WnE1GiEH6gqg-ueRh-22" target="UK9WnE1GiEH6gqg-ueRh-38">
          <mxGeometry relative="1" as="geometry" />
        </mxCell>
        <mxCell id="UK9WnE1GiEH6gqg-ueRh-22" value="修改成功" style="rhombus;whiteSpace=wrap;html=1;strokeWidth=2;" vertex="1" parent="WIyWlLk6GJQsqaUBKTNV-1">
          <mxGeometry x="320" y="960" width="120" height="60" as="geometry" />
        </mxCell>
        <mxCell id="UK9WnE1GiEH6gqg-ueRh-26" style="edgeStyle=orthogonalEdgeStyle;rounded=0;orthogonalLoop=1;jettySize=auto;html=1;exitX=0;exitY=0.5;exitDx=0;exitDy=0;entryX=0;entryY=0.5;entryDx=0;entryDy=0;curved=1;" edge="1" parent="WIyWlLk6GJQsqaUBKTNV-1" source="UK9WnE1GiEH6gqg-ueRh-24" target="UK9WnE1GiEH6gqg-ueRh-16">
          <mxGeometry relative="1" as="geometry">
            <Array as="points">
              <mxPoint x="120" y="1080" />
              <mxPoint x="120" y="720" />
            </Array>
          </mxGeometry>
        </mxCell>
        <mxCell id="UK9WnE1GiEH6gqg-ueRh-24" value="处理数据、并将其从慢队列删除" style="whiteSpace=wrap;html=1;strokeWidth=2;" vertex="1" parent="WIyWlLk6GJQsqaUBKTNV-1">
          <mxGeometry x="320" y="1050" width="120" height="60" as="geometry" />
        </mxCell>
        <mxCell id="UK9WnE1GiEH6gqg-ueRh-32" value="" style="edgeStyle=orthogonalEdgeStyle;rounded=0;orthogonalLoop=1;jettySize=auto;html=1;curved=1;" edge="1" parent="WIyWlLk6GJQsqaUBKTNV-1" source="UK9WnE1GiEH6gqg-ueRh-27" target="UK9WnE1GiEH6gqg-ueRh-31">
          <mxGeometry relative="1" as="geometry" />
        </mxCell>
        <mxCell id="UK9WnE1GiEH6gqg-ueRh-27" value="释放锁、清除排队中缓存" style="whiteSpace=wrap;html=1;strokeWidth=2;" vertex="1" parent="WIyWlLk6GJQsqaUBKTNV-1">
          <mxGeometry x="490" y="780" width="120" height="60" as="geometry" />
        </mxCell>
        <mxCell id="UK9WnE1GiEH6gqg-ueRh-31" value="结束" style="strokeWidth=2;html=1;shape=mxgraph.flowchart.terminator;whiteSpace=wrap;" vertex="1" parent="WIyWlLk6GJQsqaUBKTNV-1">
          <mxGeometry x="650" y="780" width="100" height="60" as="geometry" />
        </mxCell>
        <mxCell id="UK9WnE1GiEH6gqg-ueRh-37" style="edgeStyle=orthogonalEdgeStyle;rounded=0;orthogonalLoop=1;jettySize=auto;html=1;exitX=0.5;exitY=1;exitDx=0;exitDy=0;entryX=1;entryY=0.5;entryDx=0;entryDy=0;curved=1;" edge="1" parent="WIyWlLk6GJQsqaUBKTNV-1" source="UK9WnE1GiEH6gqg-ueRh-34" target="UK9WnE1GiEH6gqg-ueRh-12">
          <mxGeometry relative="1" as="geometry" />
        </mxCell>
        <mxCell id="UK9WnE1GiEH6gqg-ueRh-34" value="更新表中消息体" style="whiteSpace=wrap;html=1;strokeWidth=2;" vertex="1" parent="WIyWlLk6GJQsqaUBKTNV-1">
          <mxGeometry x="520" y="420" width="120" height="60" as="geometry" />
        </mxCell>
        <mxCell id="UK9WnE1GiEH6gqg-ueRh-44" style="edgeStyle=orthogonalEdgeStyle;rounded=0;orthogonalLoop=1;jettySize=auto;html=1;exitX=0.5;exitY=0;exitDx=0;exitDy=0;entryX=0;entryY=0.5;entryDx=0;entryDy=0;curved=1;" edge="1" parent="WIyWlLk6GJQsqaUBKTNV-1" source="UK9WnE1GiEH6gqg-ueRh-38" target="UK9WnE1GiEH6gqg-ueRh-16">
          <mxGeometry relative="1" as="geometry" />
        </mxCell>
        <mxCell id="UK9WnE1GiEH6gqg-ueRh-38" value="修改数据状态为延后处理" style="whiteSpace=wrap;html=1;strokeWidth=2;" vertex="1" parent="WIyWlLk6GJQsqaUBKTNV-1">
          <mxGeometry x="170" y="860" width="120" height="60" as="geometry" />
        </mxCell>
        <mxCell id="UK9WnE1GiEH6gqg-ueRh-43" value="N" style="edgeStyle=orthogonalEdgeStyle;rounded=0;orthogonalLoop=1;jettySize=auto;html=1;entryX=0.5;entryY=0;entryDx=0;entryDy=0;entryPerimeter=0;curved=1;" edge="1" parent="WIyWlLk6GJQsqaUBKTNV-1" source="UK9WnE1GiEH6gqg-ueRh-45" target="UK9WnE1GiEH6gqg-ueRh-31">
          <mxGeometry relative="1" as="geometry" />
        </mxCell>
        <mxCell id="UK9WnE1GiEH6gqg-ueRh-46" value="" style="edgeStyle=orthogonalEdgeStyle;rounded=0;orthogonalLoop=1;jettySize=auto;html=1;curved=1;" edge="1" parent="WIyWlLk6GJQsqaUBKTNV-1" source="UK9WnE1GiEH6gqg-ueRh-42" target="UK9WnE1GiEH6gqg-ueRh-45">
          <mxGeometry relative="1" as="geometry" />
        </mxCell>
        <mxCell id="UK9WnE1GiEH6gqg-ueRh-42" value="计算TPS" style="rounded=0;whiteSpace=wrap;html=1;strokeWidth=2;" vertex="1" parent="WIyWlLk6GJQsqaUBKTNV-1">
          <mxGeometry x="520" y="220" width="120" height="60" as="geometry" />
        </mxCell>
        <mxCell id="UK9WnE1GiEH6gqg-ueRh-47" value="Y" style="edgeStyle=orthogonalEdgeStyle;rounded=0;orthogonalLoop=1;jettySize=auto;html=1;curved=1;" edge="1" parent="WIyWlLk6GJQsqaUBKTNV-1" source="UK9WnE1GiEH6gqg-ueRh-45" target="UK9WnE1GiEH6gqg-ueRh-5">
          <mxGeometry relative="1" as="geometry" />
        </mxCell>
        <mxCell id="UK9WnE1GiEH6gqg-ueRh-45" value="TPS达到阈值" style="rhombus;whiteSpace=wrap;html=1;rounded=0;strokeWidth=2;" vertex="1" parent="WIyWlLk6GJQsqaUBKTNV-1">
          <mxGeometry x="520" y="330" width="120" height="60" as="geometry" />
        </mxCell>
      </root>
    </mxGraphModel>
  </diagram>
</mxfile>
